<svg width="274" height="88" viewBox="0 0 274 88" fill="none" xmlns="http://www.w3.org/2000/svg">
    <rect x="24" width="226" height="8" fill="#6C4AB6"/>
    <rect x="24" width="226" height="8" fill="black" fill-opacity="0.2"/>
    <path d="M32.512 18.98C35.872 18.98 38.476 19.688 40.324 21.104C42.196 22.496 43.132 24.548 43.132 27.26C43.132 30.092 42.232 32.252 40.432 33.74C38.632 35.204 36.208 35.936 33.16 35.936H30.604V44H23.944V18.98H32.512ZM32.548 31.184C33.796 31.184 34.732 30.872 35.356 30.248C36.004 29.624 36.328 28.64 36.328 27.296C36.328 24.872 35.02 23.66 32.404 23.66H30.604V31.184H32.548ZM56.0009 18.98V44H49.3409V18.98H56.0009ZM92.0718 18.98L88.1838 44H79.5078L76.8438 25.46L73.9638 44H65.5038L61.7238 18.98H68.3478L70.3998 39.068L73.4598 18.98H80.4438L83.1798 39.068L85.6998 18.98H92.0718ZM113.655 18.98L112.971 23.696H104.439V29.024H111.891V33.596H104.439V39.284H113.547V44H97.7792V18.98H113.655ZM128.719 34.784H126.883V44H120.223V18.98H128.899C132.427 18.98 135.055 19.616 136.783 20.888C138.535 22.16 139.411 24.116 139.411 26.756C139.411 28.34 139.039 29.66 138.295 30.716C137.575 31.772 136.411 32.72 134.803 33.56L141.031 44H133.615L128.719 34.784ZM126.883 30.248H129.115C131.419 30.248 132.571 29.084 132.571 26.756C132.571 25.676 132.247 24.884 131.599 24.38C130.975 23.876 130.027 23.624 128.755 23.624H126.883V30.248ZM160.151 30.752C161.831 31.088 163.187 31.7 164.219 32.588C165.251 33.476 165.767 34.832 165.767 36.656C165.767 39.368 164.783 41.276 162.815 42.38C160.847 43.46 158.099 44 154.571 44H146.147V18.98H153.599C157.199 18.98 159.947 19.484 161.843 20.492C163.763 21.476 164.723 23.12 164.723 25.424C164.723 26.888 164.279 28.064 163.391 28.952C162.527 29.816 161.447 30.416 160.151 30.752ZM152.807 23.624V28.844H154.535C155.711 28.844 156.575 28.628 157.127 28.196C157.679 27.764 157.955 27.068 157.955 26.108C157.955 25.22 157.655 24.584 157.055 24.2C156.479 23.816 155.531 23.624 154.211 23.624H152.807ZM154.607 39.248C156.023 39.248 157.091 39.044 157.811 38.636C158.531 38.204 158.891 37.412 158.891 36.26C158.891 35.156 158.555 34.364 157.883 33.884C157.211 33.38 156.239 33.128 154.967 33.128H152.807V39.248H154.607ZM178.696 18.98V38.816H188.308L187.588 44H172.036V18.98H178.696ZM203.233 18.332C206.857 18.332 209.677 19.484 211.693 21.788C213.709 24.092 214.717 27.32 214.717 31.472C214.717 34.184 214.261 36.536 213.349 38.528C212.461 40.496 211.153 42.008 209.425 43.064C207.697 44.12 205.633 44.648 203.233 44.648C199.609 44.648 196.789 43.496 194.773 41.192C192.781 38.888 191.785 35.648 191.785 31.472C191.785 28.76 192.229 26.42 193.117 24.452C194.029 22.484 195.337 20.972 197.041 19.916C198.769 18.86 200.833 18.332 203.233 18.332ZM203.233 23.12C201.673 23.12 200.521 23.768 199.777 25.064C199.057 26.36 198.697 28.496 198.697 31.472C198.697 34.448 199.069 36.596 199.813 37.916C200.557 39.212 201.697 39.86 203.233 39.86C204.817 39.86 205.969 39.212 206.689 37.916C207.409 36.62 207.769 34.472 207.769 31.472C207.769 28.496 207.409 26.36 206.689 25.064C205.969 23.768 204.817 23.12 203.233 23.12ZM232.517 18.332C235.853 18.332 238.721 19.388 241.121 21.5L237.845 24.92C236.933 24.272 236.105 23.804 235.361 23.516C234.641 23.204 233.813 23.048 232.877 23.048C231.077 23.048 229.661 23.744 228.629 25.136C227.621 26.528 227.117 28.652 227.117 31.508C227.117 33.596 227.285 35.252 227.621 36.476C227.957 37.676 228.461 38.54 229.133 39.068C229.829 39.596 230.717 39.86 231.797 39.86C232.877 39.86 233.861 39.632 234.749 39.176V34.028H231.905L231.257 29.456H241.193V41.912C239.897 42.776 238.433 43.448 236.801 43.928C235.169 44.408 233.561 44.648 231.977 44.648C224.153 44.648 220.241 40.256 220.241 31.472C220.241 28.736 220.769 26.384 221.825 24.416C222.905 22.424 224.369 20.912 226.217 19.88C228.065 18.848 230.165 18.332 232.517 18.332Z"
          fill="black"/>
    <path d="M32.5 57L48.5215 80.25H16.4785L32.5 57Z" fill="#6C4AB6"/>
    <path d="M32.5 57L48.5215 80.25H16.4785L32.5 57Z" fill="black" fill-opacity="0.2"/>
    <path d="M70.5 57L86.5215 80.25H54.4785L70.5 57Z" fill="#6C4AB6"/>
    <path d="M70.5 57L86.5215 80.25H54.4785L70.5 57Z" fill="black" fill-opacity="0.2"/>
    <path d="M108.5 57L124.521 80.25H92.4785L108.5 57Z" fill="#6C4AB6"/>
    <path d="M108.5 57L124.521 80.25H92.4785L108.5 57Z" fill="black" fill-opacity="0.2"/>
    <path d="M146.5 57L162.521 80.25H130.479L146.5 57Z" fill="#6C4AB6"/>
    <path d="M146.5 57L162.521 80.25H130.479L146.5 57Z" fill="black" fill-opacity="0.2"/>
    <path d="M184.5 57L200.521 80.25H168.479L184.5 57Z" fill="#6C4AB6"/>
    <path d="M184.5 57L200.521 80.25H168.479L184.5 57Z" fill="black" fill-opacity="0.2"/>
    <path d="M222.5 57L238.521 80.25H206.479L222.5 57Z" fill="#6C4AB6"/>
    <path d="M222.5 57L238.521 80.25H206.479L222.5 57Z" fill="black" fill-opacity="0.2"/>
    <path d="M51.5 79L35.4785 55.75H67.5215L51.5 79Z" fill="#6C4AB6"/>
    <path d="M51.5 79L35.4785 55.75H67.5215L51.5 79Z" fill="black" fill-opacity="0.2"/>
    <path d="M89.5 79L73.4785 55.75H105.521L89.5 79Z" fill="#6C4AB6"/>
    <path d="M89.5 79L73.4785 55.75H105.521L89.5 79Z" fill="black" fill-opacity="0.2"/>
    <path d="M127.5 79L111.479 55.75H143.521L127.5 79Z" fill="#6C4AB6"/>
    <path d="M127.5 79L111.479 55.75H143.521L127.5 79Z" fill="black" fill-opacity="0.2"/>
    <path d="M165.5 79L149.479 55.75H181.521L165.5 79Z" fill="#6C4AB6"/>
    <path d="M165.5 79L149.479 55.75H181.521L165.5 79Z" fill="black" fill-opacity="0.2"/>
    <path d="M203.5 79L187.479 55.75H219.521L203.5 79Z" fill="#6C4AB6"/>
    <path d="M203.5 79L187.479 55.75H219.521L203.5 79Z" fill="black" fill-opacity="0.2"/>
    <path d="M241.5 79L225.479 55.75H257.521L241.5 79Z" fill="#6C4AB6"/>
    <path d="M241.5 79L225.479 55.75H257.521L241.5 79Z" fill="black" fill-opacity="0.2"/>
</svg>
